<svg xmlns="http://www.w3.org/2000/svg" style="display: none;">
  <symbol id="icon-facebook" viewBox="0 0 50 50">
    <path fill="none" stroke-linecap="round" stroke-miterlimit="10" stroke-width="2" d="M25,4C13.402,4,4,13.402,4,25c0,10.528,7.756,19.222,17.861,20.74V30.566h-5.196v-5.52h5.196v-3.673c0-6.081,2.963-8.751,8.017-8.751c2.421,0,3.701,0.179,4.307,0.261v4.818h-3.447c-2.145,0-2.895,2.034-2.895,4.327v3.017h6.289l-0.853,5.52h-5.435v15.22C38.093,44.395,46,35.631,46,25C46,13.402,36.598,4,25,4z"/>
  </symbol>

  <symbol id="icon-facebook-fill" viewBox="0 0 50 50">
      <path d="M25,3C12.85,3,3,12.85,3,25c0,11.03,8.125,20.137,18.712,21.728V30.831h-5.443v-5.783h5.443v-3.848c0-6.371,3.104-9.168,8.399-9.168c2.536,0,3.877,0.188,4.512,0.274v5.048h-3.612c-2.248,0-3.033,2.131-3.033,4.533v3.161h6.588l-0.894,5.783h-5.694v15.944C38.716,45.318,47,36.137,47,25C47,12.85,37.15,3,25,3z"/>
  </symbol>

  <symbol id="icon-twitter" viewBox="0 0 50 50">
    <path fill="none" stroke-linecap="round" stroke-linejoin="round" stroke-miterlimit="10" stroke-width="2" d="M49,11.096c-1.768,0.784-3.664,1.311-5.658,1.552c2.035-1.22,3.597-3.151,4.332-5.448c-1.903,1.127-4.013,1.947-6.255,2.388c-1.795-1.916-4.354-3.11-7.186-3.11c-5.44,0-9.849,4.409-9.849,9.847c0,0.771,0.088,1.522,0.257,2.244c-8.184-0.412-15.441-4.332-20.299-10.29c-0.848,1.458-1.332,3.149-1.332,4.953c0,3.416,1.735,6.429,4.38,8.197c-1.616-0.051-3.132-0.495-4.46-1.233c0,0.042,0,0.082,0,0.125c0,4.773,3.394,8.748,7.896,9.657c-0.824,0.227-1.694,0.346-2.592,0.346c-0.636,0-1.253-0.062-1.856-0.178c1.257,3.909,4.892,6.761,9.201,6.84c-3.368,2.641-7.614,4.213-12.23,4.213c-0.797,0-1.579-0.044-2.348-0.137c4.356,2.795,9.534,4.425,15.095,4.425c18.114,0,28.022-15.007,28.022-28.016c0-0.429-0.011-0.856-0.029-1.275C46.012,14.807,47.681,13.071,49,11.096z"/>
  </symbol>

  <symbol id="icon-twitter-fill" viewBox="0 0 50 50">
    <path d="M50.061,10.438c-1.846,0.818-3.826,1.369-5.908,1.62c2.125-1.273,3.757-3.29,4.523-5.688c-1.986,1.177-4.19,2.033-6.531,2.493c-1.874-2-4.547-3.247-7.504-3.247c-5.68,0-10.284,4.604-10.284,10.282c0,0.805,0.092,1.589,0.269,2.343C16.08,17.812,8.502,13.718,3.429,7.497c-0.885,1.522-1.391,3.289-1.391,5.172c0,3.567,1.812,6.713,4.574,8.56c-1.688-0.054-3.271-0.517-4.657-1.288c0,0.044,0,0.086,0,0.131c0,4.984,3.544,9.134,8.245,10.084c-0.86,0.236-1.769,0.36-2.707,0.36c-0.664,0-1.309-0.064-1.938-0.186c1.313,4.081,5.108,7.06,9.607,7.143c-3.517,2.757-7.951,4.399-12.77,4.399c-0.833,0-1.649-0.048-2.452-0.144c4.548,2.919,9.956,4.619,15.762,4.619c18.915,0,29.26-15.668,29.26-29.252c0-0.448-0.011-0.894-0.03-1.332C46.94,14.313,48.684,12.5,50.061,10.438z"/>
  </symbol>

  <symbol id="icon-whatsapp" viewBox="0 0 50 50">
    <path fill="none" stroke-miterlimit="10" stroke-width="2" d="M19.102,15.022c-0.479-1.137-0.966-0.983-1.329-1.001C17.429,14.005,17.036,14,16.642,14c-0.394,0-1.033,0.146-1.575,0.73S13,16.724,13,19.594s2.116,5.641,2.411,6.031c0.296,0.389,4.164,6.278,10.087,8.804c1.409,0.6,2.509,0.959,3.366,1.228c1.414,0.444,2.702,0.381,3.72,0.231c1.134-0.167,3.494-1.411,3.986-2.772c0.492-1.362,0.492-2.529,0.344-2.772c-0.148-0.243-0.542-0.389-1.132-0.681c-0.59-0.292-3.494-1.703-4.036-1.896c-0.542-0.195-0.935-0.292-1.329,0.292c-0.394,0.584-1.525,1.896-1.869,2.286c-0.344,0.389-0.689,0.438-1.279,0.146c-0.59-0.292-2.494-0.907-4.748-2.894c-1.756-1.546-2.941-3.455-3.285-4.039s-0.037-0.899,0.259-1.19c0.266-0.262,0.59-0.681,0.886-1.022c0.296-0.341,0.394-0.584,0.59-0.973s0.098-0.73-0.05-1.022C20.775,19.059,19.594,16.19,19.102,15.022z"/>
    <path fill="none" stroke-linejoin="round" stroke-miterlimit="10" stroke-width="2" d="M25,3C12.85,3,3,12.85,3,25c0,4.072,1.111,7.884,3.04,11.155L3,47l11.274-2.793C17.448,45.983,21.104,47,25,47c12.15,0,22-9.85,22-22S37.15,3,25,3z"/>
  </symbol>

  <symbol id="icon-whatsapp-fill" viewBox="0 0 50 50">
    <path d="M25,2C12.318,2,2,12.318,2,25c0,3.96,1.023,7.854,2.963,11.29L2.037,46.73c-0.096,0.343-0.003,0.711,0.245,0.966C2.473,47.893,2.733,48,3,48c0.08,0,0.161-0.01,0.24-0.029l10.896-2.699C17.463,47.058,21.21,48,25,48c12.682,0,23-10.318,23-23S37.682,2,25,2z M36.57,33.116c-0.492,1.362-2.852,2.605-3.986,2.772c-1.018,0.149-2.306,0.213-3.72-0.231c-0.857-0.27-1.957-0.628-3.366-1.229c-5.923-2.526-9.791-8.415-10.087-8.804C15.116,25.235,13,22.463,13,19.594s1.525-4.28,2.067-4.864c0.542-0.584,1.181-0.73,1.575-0.73s0.787,0.005,1.132,0.021c0.363,0.018,0.85-0.137,1.329,1.001c0.492,1.168,1.673,4.037,1.819,4.33c0.148,0.292,0.246,0.633,0.05,1.022c-0.196,0.389-0.294,0.632-0.59,0.973s-0.62,0.76-0.886,1.022c-0.296,0.291-0.603,0.606-0.259,1.19c0.344,0.584,1.529,2.493,3.285,4.039c2.255,1.986,4.158,2.602,4.748,2.894c0.59,0.292,0.935,0.243,1.279-0.146c0.344-0.39,1.476-1.703,1.869-2.286s0.787-0.487,1.329-0.292c0.542,0.194,3.445,1.604,4.035,1.896c0.59,0.292,0.984,0.438,1.132,0.681C37.062,30.587,37.062,31.755,36.57,33.116z"/>
  </symbol>

  <symbol id="icon-dribbble-fill" viewBox="0 0 50 50">
    <path d="M22.58 28c.42 1.97 1.05 3.93 1.72 5.18-1.1 1.8-2.4 2.82-3.68 2.82C17.29 36 17 33.36 17 32.12c0-.19-.06-5.12 3.12-5.12 1.26 0 2.23.81 2.23.81C22.42 27.88 22.5 27.94 22.58 28zM26.29 14.05c.47.66.75 2.69.75 7.45 0 2.53-.12 5.52-1.05 8.09-.62-2-1.03-4.7-1.03-8.22C24.96 18.13 25.68 15.09 26.29 14.05z"/><path d="M41,4H9C6.24,4,4,6.24,4,9v32c0,2.76,2.24,5,5,5h32c2.76,0,5-2.24,5-5V9C46,6.24,43.76,4,41,4z M35.93,28.84c-0.76,2.34-2.89,8.14-6.11,8.14c-1.02,0-2.39-0.04-3.7-1.32c-1.47,2-3.3,3.34-5.47,3.34C16.06,39,14,35.51,14,32.05c0-3.67,1.88-8,6.13-8c0.72,0,1.38,0.13,1.95,0.33c-0.08-1-0.08-1.8-0.08-3C22,21.27,22.04,11,26.17,11C28.14,11,30,12.77,30,21.5c0,3.12-0.53,7.65-2.38,11.38c0.8,1.04,1.6,1.37,2.13,1.12c1.5-0.72,2.46-3.25,3.36-6.01c0.25-0.75,1.08-1.16,1.85-0.93C35.74,27.3,36.18,28.1,35.93,28.84z"/>
  </symbol>

  <symbol id="icon-linkedin" viewBox="0 0 50 50">
    <path fill="none" stroke-linecap="round" stroke-linejoin="round" stroke-miterlimit="10" stroke-width="2" d="M9,45h32c2.209,0,4-1.791,4-4V9c0-2.209-1.791-4-4-4H9C6.791,5,5,6.791,5,9v32C5,43.209,6.791,45,9,45z"/>
    <path fill="none" stroke-linecap="round" stroke-linejoin="round" stroke-miterlimit="10" stroke-width="2" d="M11 20L17 20 17 33.135 17 39 11 39z"/>
    <path fill="none" stroke-linecap="round" stroke-linejoin="round" stroke-miterlimit="10" stroke-width="1.976" d="M14,17L14,17c-1.8,0-3-1.133-3-2.533S12.2,12,14,12s2.925,1.067,3,2.467C17,15.867,15.875,17,14,17z"/>
    <path fill="none" stroke-linecap="round" stroke-linejoin="round" stroke-miterlimit="10" stroke-width="2" d="M39,39h-6c0,0,0-9.257,0-10c0-2-1-4-3.5-4.043C27.022,24.913,26,27,26,29c0,0.909,0,10,0,10h-6V20h6v2.561c0,0,1.93-2.561,5.813-2.561C35.778,20,39,22.726,39,28.261V39z"/>
  </symbol>

  <symbol id="icon-linkedin-fill" viewBox="0 0 50 50">
    <path d="M41,4H9C6.24,4,4,6.24,4,9v32c0,2.76,2.24,5,5,5h32c2.76,0,5-2.24,5-5V9C46,6.24,43.76,4,41,4z M17,20v19h-6V20H17z M11,14.47c0-1.4,1.2-2.47,3-2.47s2.93,1.07,3,2.47c0,1.4-1.12,2.53-3,2.53C12.2,17,11,15.87,11,14.47z M39,39h-6c0,0,0-9.26,0-10c0-2-1-4-3.5-4.04h-0.08C27,24.96,26,27.02,26,29c0,0.91,0,10,0,10h-6V20h6v2.56c0,0,1.93-2.56,5.81-2.56c3.97,0,7.19,2.73,7.19,8.26V39z"/>
  </symbol>

  <symbol id="icon-youtube-fill" viewBox="0 0 50 50">
    <path d="M44.9,14.5c-0.4-2.2-2.3-3.8-4.5-4.3C37.1,9.5,31,9,24.4,9c-6.6,0-12.8,0.5-16.1,1.2c-2.2,0.5-4.1,2-4.5,4.3C3.4,17,3,20.5,3,25s0.4,8,0.9,10.5c0.4,2.2,2.3,3.8,4.5,4.3c3.5,0.7,9.5,1.2,16.1,1.2s12.6-0.5,16.1-1.2c2.2-0.5,4.1-2,4.5-4.3c0.4-2.5,0.9-6.1,1-10.5C45.9,20.5,45.4,17,44.9,14.5z M19,32V18l12.2,7L19,32z"/>
  </symbol>

  <symbol id="icon-open-book-fill" viewBox="0 0 50 50">
    <path fill="none" stroke-miterlimit="10" stroke-width="2" d="M25 42L25 9"/>
    <path d="M43,8v30c-10,0-18,4-18,4s-8-4-18-4V8H2v35h1c12.612,0,21.506,3.875,21.595,3.914l0.406,0.18l0.404-0.18C25.494,46.875,34.388,43,47,43h1V8H43z"/>
    <path fill="none" stroke-linecap="round" stroke-miterlimit="10" stroke-width="2" d="M25,9c0,0-8-4-18-4v33c10,0,18,4,18,4s8-4,18-4V5C33,5,25,9,25,9z"/>
  </symbol>

  <symbol id="icon-open-instagram" viewBox="0 0 50 50">
    <path fill="none" stroke-miterlimit="10" stroke-width="2" d="M16,46h18c6.627,0,12-5.373,12-12V16c0-6.627-5.373-12-12-12H16C9.373,4,4,9.373,4,16v18C4,40.627,9.373,46,16,46z"/>
    <path fill="none" stroke-miterlimit="10" stroke-width="2" d="M25 15A10 10 0 1 0 25 35A10 10 0 1 0 25 15Z"/>
    <path d="M37 11A2 2 0 1 0 37 15A2 2 0 1 0 37 11Z"/>
  </symbol>
</svg>
