<svg xmlns="http://www.w3.org/2000/svg" style="display: none;">
  <symbol id="icon-facebook-fill" viewBox="0 0 50 50">
      <path d="M25,3C12.85,3,3,12.85,3,25c0,11.03,8.125,20.137,18.712,21.728V30.831h-5.443v-5.783h5.443v-3.848c0-6.371,3.104-9.168,8.399-9.168c2.536,0,3.877,0.188,4.512,0.274v5.048h-3.612c-2.248,0-3.033,2.131-3.033,4.533v3.161h6.588l-0.894,5.783h-5.694v15.944C38.716,45.318,47,36.137,47,25C47,12.85,37.15,3,25,3z"/>
  </symbol>
  <symbol id="icon-dribbble-fill" viewBox="0 0 50 50">
    <path d="M22.58 28c.42 1.97 1.05 3.93 1.72 5.18-1.1 1.8-2.4 2.82-3.68 2.82C17.29 36 17 33.36 17 32.12c0-.19-.06-5.12 3.12-5.12 1.26 0 2.23.81 2.23.81C22.42 27.88 22.5 27.94 22.58 28zM26.29 14.05c.47.66.75 2.69.75 7.45 0 2.53-.12 5.52-1.05 8.09-.62-2-1.03-4.7-1.03-8.22C24.96 18.13 25.68 15.09 26.29 14.05z"/><path d="M41,4H9C6.24,4,4,6.24,4,9v32c0,2.76,2.24,5,5,5h32c2.76,0,5-2.24,5-5V9C46,6.24,43.76,4,41,4z M35.93,28.84c-0.76,2.34-2.89,8.14-6.11,8.14c-1.02,0-2.39-0.04-3.7-1.32c-1.47,2-3.3,3.34-5.47,3.34C16.06,39,14,35.51,14,32.05c0-3.67,1.88-8,6.13-8c0.72,0,1.38,0.13,1.95,0.33c-0.08-1-0.08-1.8-0.08-3C22,21.27,22.04,11,26.17,11C28.14,11,30,12.77,30,21.5c0,3.12-0.53,7.65-2.38,11.38c0.8,1.04,1.6,1.37,2.13,1.12c1.5-0.72,2.46-3.25,3.36-6.01c0.25-0.75,1.08-1.16,1.85-0.93C35.74,27.3,36.18,28.1,35.93,28.84z"/>
  </symbol>
  <symbol id="icon-linkedin-fill" viewBox="0 0 50 50">
    <path d="M41,4H9C6.24,4,4,6.24,4,9v32c0,2.76,2.24,5,5,5h32c2.76,0,5-2.24,5-5V9C46,6.24,43.76,4,41,4z M17,20v19h-6V20H17z M11,14.47c0-1.4,1.2-2.47,3-2.47s2.93,1.07,3,2.47c0,1.4-1.12,2.53-3,2.53C12.2,17,11,15.87,11,14.47z M39,39h-6c0,0,0-9.26,0-10c0-2-1-4-3.5-4.04h-0.08C27,24.96,26,27.02,26,29c0,0.91,0,10,0,10h-6V20h6v2.56c0,0,1.93-2.56,5.81-2.56c3.97,0,7.19,2.73,7.19,8.26V39z"/>
  </symbol>
  <symbol id="icon-youtube-fill" viewBox="0 0 50 50">
    <path d="M44.9,14.5c-0.4-2.2-2.3-3.8-4.5-4.3C37.1,9.5,31,9,24.4,9c-6.6,0-12.8,0.5-16.1,1.2c-2.2,0.5-4.1,2-4.5,4.3C3.4,17,3,20.5,3,25s0.4,8,0.9,10.5c0.4,2.2,2.3,3.8,4.5,4.3c3.5,0.7,9.5,1.2,16.1,1.2s12.6-0.5,16.1-1.2c2.2-0.5,4.1-2,4.5-4.3c0.4-2.5,0.9-6.1,1-10.5C45.9,20.5,45.4,17,44.9,14.5z M19,32V18l12.2,7L19,32z"/>
  </symbol>
  <symbol id="icon-open-book-fill" viewBox="0 0 50 50">
    <path fill="none" stroke-miterlimit="10" stroke-width="2" d="M25 42L25 9"/>
    <path d="M43,8v30c-10,0-18,4-18,4s-8-4-18-4V8H2v35h1c12.612,0,21.506,3.875,21.595,3.914l0.406,0.18l0.404-0.18C25.494,46.875,34.388,43,47,43h1V8H43z"/>
    <path fill="none" stroke-linecap="round" stroke-miterlimit="10" stroke-width="2" d="M25,9c0,0-8-4-18-4v33c10,0,18,4,18,4s8-4,18-4V5C33,5,25,9,25,9z"/>
  </symbol>
</svg>